#tb 0: 1/25
0,          0,          0,        1,    76032, 0x91a76ff9
0,          1,          1,        1,    76032, 0x9d80d611
0,          2,          2,        1,    76032, 0xba0435fb
0,          3,          3,        1,    76032, 0x790f3097
